<svg width="140" height="36" viewBox="0 0 140 36" fill="none" xmlns="http://www.w3.org/2000/svg">
<g clip-path="url(#clip0_125_856)">
<path d="M45.2061 14.0146C45.2061 11.4742 42.7637 8.77628 38.5377 8.77628C33.792 8.77628 28.5786 12.2976 27.7818 19.3226C26.9678 26.4178 31.3324 29.5712 35.7317 29.5712C40.1311 29.5712 42.4348 27.8369 44.7904 25.5244C42.7637 22.949 40.1486 24.1405 39.6463 24.4032C39.092 24.6834 38.3819 25.0689 36.9269 25.0689C35.2294 25.0689 33.4975 24.2981 33.4975 21.0921C44.3748 20.006 45.2061 16.5546 45.2061 14.0146ZM39.8193 14.435C39.7502 15.2232 39.4384 16.5723 33.9306 17.3254C35.0911 13.1561 37.3078 12.8408 38.3299 12.8408C39.2826 12.8408 39.8885 13.5939 39.8193 14.435ZM21.3905 15.1181C21.3905 15.1181 19.0526 22.546 18.8617 23.1592C18.7925 22.5286 17.0778 9.19667 17.0778 9.19667C13.0941 9.19667 10.9637 12.0697 9.83801 15.1007C9.83801 15.1007 6.99727 22.546 6.755 23.1766C6.7375 22.5986 6.32188 15.1883 6.32188 15.1883C6.07934 11.474 2.71934 9.21437 0 9.21437L3.29082 29.4136C7.46512 29.3962 9.7166 26.5406 10.8946 23.5096C10.8946 23.5096 13.4058 16.9402 13.5097 16.6423C13.5272 16.9225 15.3111 29.4136 15.3111 29.4136C19.5027 29.4136 21.7544 26.733 22.9668 23.8075L28.8384 9.21437C24.6985 9.21437 22.5165 12.0697 21.3905 15.1181ZM60.5864 8.74116C58.0057 8.74116 56.0312 10.1603 54.3684 12.2451V12.2276L55.8581 0.0869141C52.4286 0.0869141 49.6401 3.10018 49.1031 7.5848L46.5049 29.2559C48.4796 29.2559 50.5753 28.6779 51.701 27.2063C52.7056 28.52 54.2125 29.5712 56.4468 29.5712C62.2319 29.5712 66.1981 22.7739 66.1981 16.397C66.1637 10.5806 63.3749 8.74116 60.5864 8.74116ZM60.0496 19.1655C59.4434 22.7216 57.4861 25.1394 55.598 25.1394C53.693 25.1394 52.879 24.2807 52.879 24.2807C53.2427 21.1623 53.4677 19.2529 54.1606 17.6061C54.8535 15.9594 56.4988 13.3314 58.2135 13.3314C59.8935 13.3314 60.6558 15.5916 60.0496 19.1655ZM80.6433 9.21382H76.6076L76.6251 9.00362C76.9021 6.34078 77.5255 4.93938 79.5867 4.71177C80.9897 4.57154 81.6132 3.83558 81.769 3.02993C81.8904 2.39934 82.2713 0.209159 82.2713 0.209159C74.1655 0.15661 71.6196 3.69564 70.9614 9.0913L70.9439 9.2141H70.8572C69.5409 9.2141 68.0862 10.7206 67.8437 12.63L67.757 13.3309H70.4591L68.1901 32.2864L67.4972 35.6852C67.5839 35.6852 67.6878 35.7026 67.7742 35.7026C71.5676 35.5624 73.9922 32.5317 74.5292 28.1344L76.2959 13.3309H77.5603C78.8071 13.3309 80.2624 12.0697 80.5221 9.9672L80.6433 9.21382ZM101.636 8.86368C96.9763 8.86368 92.5769 12.3325 91.2259 17.7807C89.8751 23.2291 91.9187 29.6761 98.7777 29.6761C105.619 29.6761 109.568 22.9664 109.568 17.3777C109.568 11.8241 105.844 8.86368 101.636 8.86368ZM103.523 18.9896C103.281 21.4596 102.207 25.2089 99.2627 25.2089C96.3009 25.2089 96.7165 20.829 97.011 18.7442C97.3227 16.5195 98.5526 13.3483 101.203 13.3483C103.575 13.3483 103.8 16.2039 103.523 18.9896ZM132.587 15.1178C132.587 15.1178 130.249 22.5457 130.058 23.1589C129.989 22.5283 128.274 9.19639 128.274 9.19639C124.29 9.19639 122.16 12.0694 121.034 15.1004C121.034 15.1004 118.194 22.5457 117.951 23.1763C117.934 22.5983 117.518 15.1881 117.518 15.1881C117.276 11.4737 113.916 9.2141 111.196 9.2141L114.47 29.4133C118.644 29.3959 120.896 26.5403 122.073 23.5093C122.073 23.5093 124.585 16.9399 124.672 16.642C124.689 16.9222 126.473 29.4133 126.473 29.4133C130.665 29.4133 132.916 26.7328 134.128 23.8072L140 9.21437C135.878 9.21437 133.695 12.0694 132.587 15.1178ZM84.4539 0.209436L81.0589 27.9068L80.3663 31.3231C80.4527 31.3231 80.5566 31.3408 80.6433 31.3408C84.2978 31.2882 86.896 28.047 87.3808 23.9651L89.338 8.07544C89.927 3.2227 87.0691 0.209712 84.4539 0.209712" fill="#D9D9D9"/>
</g>
<defs>
<clipPath id="clip0_125_856">
<rect width="140" height="35.6779" fill="white" transform="translate(0 0.0869141)"/>
</clipPath>
</defs>
</svg>
