<svg width="140" height="48" viewBox="0 0 140 48" fill="none" xmlns="http://www.w3.org/2000/svg">
<g clip-path="url(#clip0_125_853)">
<path d="M47.7813 0V17.2982H50.2575L54.8609 30.0923L59.5016 17.2982H64.8296L57.2171 36.2917H52.4333L47.7813 24.6838V47.7832H0V0H47.7813ZM82.5243 16.8626C88.2145 16.8626 90.1723 20.4879 90.3172 23.2796H85.3513C85.2425 22.0836 84.3358 20.9948 82.4884 20.9948C80.8175 20.9948 79.8787 21.7927 79.8787 22.8441C79.8787 26.0337 90.3902 22.8441 90.3902 30.637C90.3902 34.0443 87.4896 36.7254 82.3438 36.7254C76.3982 36.7254 74.3687 33.682 74.1152 30.1282H79.3343C79.4076 31.3972 80.3499 32.5932 82.4884 32.5932C84.4446 32.5932 85.4602 31.9041 85.4602 30.8547C85.4602 27.665 74.9131 30.6726 74.9131 23.1331C74.9131 19.69 77.8493 16.8626 82.524 16.8626M110.362 16.8626C116.452 16.8626 120.331 21.3927 120.331 26.7939C120.331 32.1951 116.45 36.7251 110.362 36.7251C104.273 36.7251 100.395 32.1934 100.395 26.7939C100.395 21.3946 104.273 16.8626 110.362 16.8626ZM133.005 16.8626C137.572 16.8626 140 19.9076 140 24.4379V36.2936H134.854V25.0195C134.854 22.8102 133.911 21.2871 131.627 21.2871C129.126 21.2871 127.75 22.8793 127.75 25.4177V36.2914H122.602V17.2982H127.35V19.6186C128.221 17.9889 130.177 16.8626 133.005 16.8626ZM71.6105 17.2982V36.2917H66.4628V17.2982H71.6105ZM98.1397 17.2982V36.2917H92.992V17.2982H98.1397ZM110.362 21.3946C107.641 21.3946 105.542 23.3866 105.542 26.7939C105.542 30.2014 107.645 32.1951 110.362 32.1951C113.086 32.1951 115.183 30.1995 115.183 26.7939C115.183 23.3882 113.082 21.3946 110.362 21.3946Z" fill="#D9D9D9"/>
<path d="M16.7304 15.0418C18.2414 15.024 19.4539 13.7878 19.4421 12.2768C19.4303 10.7658 18.199 9.54845 16.688 9.55447C15.177 9.55993 13.955 10.7868 13.9548 12.2979C13.956 12.6605 14.0289 13.0193 14.1693 13.3537C14.3096 13.6881 14.5146 13.9915 14.7725 14.2464C15.0304 14.5013 15.3362 14.7028 15.6722 14.8393C16.0082 14.9757 16.3678 15.0447 16.7304 15.0418ZM10.9521 29.7396C10.7946 30.4167 10.7122 31.109 10.7063 31.8041C10.7063 34.2213 12.0199 35.8258 14.803 35.8258C17.1135 35.8258 18.9863 34.454 20.3338 32.2375L19.5115 35.5422H24.0982L26.7257 25.0332C27.3767 22.3628 28.6474 20.974 30.5729 20.974C32.0872 20.974 33.0295 21.9125 33.0295 23.4719C33.0364 23.9711 32.9673 24.4684 32.8247 24.9468L31.4736 29.7943C31.2809 30.4597 31.1842 31.1491 31.1865 31.8418C31.1865 34.137 32.5376 35.8149 35.3638 35.8149C37.781 35.8149 39.7065 34.259 40.7708 30.532L38.9688 29.8356C38.0681 32.3335 37.2801 32.7838 36.6758 32.7838C36.0715 32.7838 35.7373 32.3747 35.7373 31.5566C35.7551 31.1265 35.8237 30.6999 35.9419 30.286L37.2557 25.5774C37.5513 24.6089 37.7036 23.6024 37.708 22.5898C37.708 19.0674 35.5779 17.2282 32.9956 17.2282C30.5803 17.2282 28.1164 19.4089 26.8924 21.7022L27.7953 17.5848H20.7822L19.7989 21.2125H23.0774L21.0581 29.2915C19.4741 32.8139 16.554 32.8702 16.1975 32.7895C15.597 32.6545 15.2142 32.4256 15.2142 31.6466C15.2325 31.0116 15.329 30.3814 15.5013 29.77L18.5734 17.5829H10.7908L9.80725 21.2106H13.0428L10.9521 29.7396Z" fill="white"/>
</g>
<defs>
<clipPath id="clip0_125_853">
<rect width="140" height="47.8516" fill="white"/>
</clipPath>
</defs>
</svg>
